<svg width="882.34637" height="778.99856" viewBox="0 0 164 135" xmlns="http://www.w3.org/2000/svg"><title>logo</title><g fill="#061B3E" fill-rule="evenodd"><path d="M2.73 95.95v-7.6c0-.583-.376-.752-1.956-.808v-.602h5.548v.602c-1.673.056-1.806.188-1.806.808v7.298c0 2.2 1.487 3.16 3.5 3.16 1.015 0 1.804-.357 2.388-.94.676-.678.96-1.26.96-2.67v-5.305c0-1.712-.395-2.144-2.182-2.407v-.546h4.777v.546c-1.674.3-1.844.695-1.844 2.407v5.868c0 1.975-1.692 3.856-4.682 3.856-2.88 0-4.703-1.486-4.703-3.668m15.329-7.053h-.018v7.448c0 1.73.224 2.162 2.03 2.426v.546h-4.76v-.546c1.675-.282 1.977-.695 1.977-2.426V88.82c0-.697-.452-1.242-1.976-1.28v-.601h3.519l6.996 9.61h.018v-6.658c0-1.71-.395-2.144-2.18-2.406v-.546h4.776v.546c-1.674.3-1.843.696-1.843 2.406v9.725h-.733l-7.805-10.72zm11.849 9.818c1.58-.056 1.956-.226 1.956-.81v-9.553c0-.583-.376-.753-1.956-.81v-.602h5.698v.603c-1.579.056-1.955.226-1.955.809v9.554c0 .583.376.753 1.955.809v.602h-5.698v-.602zm9.065-9.894c-.301-.808-.62-1.052-2.012-1.335v-.546h5.512v.546c-1.637.094-1.92.432-1.656 1.186l3.028 8.632h.076l2.784-7.41c.694-1.862.432-2.144-1.336-2.408v-.546h4.457v.546c-1.279.264-1.617.772-2.238 2.389l-3.8 9.742h-.845l-3.97-10.795zm11.812 9.894c1.58-.056 1.956-.226 1.956-.81v-9.553c0-.583-.376-.753-1.956-.81v-.602H60.83l.057 3.461-.583.02c-.659-2.107-.997-2.785-3.104-2.785h-2.67v4.91h1.108c1.393 0 1.919-.132 2.39-2.089h.507v4.89h-.507c-.471-1.955-.997-2.087-2.39-2.087h-1.109v5.342h2.67c2.483 0 3.087-.977 3.743-3.16l.584.02-.095 3.855H50.785v-.602zm17.21-5.924c2.37 0 2.953-1.035 2.953-2.785 0-1.636-.828-2.388-3.085-2.388h-1.317v5.172h1.449zm-1.449 5.115c0 .62.264.752 1.938.809v.601h-5.68v-.601c1.58-.057 1.956-.226 1.956-.81v-9.553c0-.584-.376-.752-1.957-.81v-.6h5.192c3.762 0 4.871 1.447 4.871 3.008 0 1.505-.846 2.595-3.14 3.103v.057c2.276.226 2.557 1.11 2.783 2.482l.282 1.787c.17 1.092.621 1.355 1.918 1.45v.6c-.131 0-.489.02-.62.02-2.652 0-3.084-.546-3.217-2.257l-.112-1.449c-.15-1.843-.922-2.276-2.859-2.276h-1.355v4.439zm9.291-2.238h.585c.977 2.182 2.218 3.273 3.779 3.273 1.882 0 2.652-1.28 2.652-2.39 0-1.39-.997-1.899-3.273-2.707-1.71-.602-3.516-1.11-3.516-3.423 0-2.352 1.843-3.78 4.176-3.78 1.053 0 1.805.206 2.406.431l.602-.527h.413v3.613h-.582c-.601-1.75-1.674-2.84-3.141-2.84-1.279 0-2.276.827-2.276 2.293 0 1.355 1.09 1.788 3.103 2.465 1.713.583 3.48 1.166 3.48 3.498 0 1.862-1.09 4.044-4.212 4.044-1.016 0-2.088-.225-2.804-.526l-.94.601h-.452v-4.025zm10.195 3.047c1.58-.056 1.957-.226 1.957-.81v-9.553c0-.583-.377-.753-1.957-.81v-.602h5.698v.603c-1.579.056-1.955.226-1.955.809v9.554c0 .583.376.753 1.955.809v.602h-5.698v-.602zm9.705 0c1.675-.056 2.088-.226 2.088-.81V87.618h-.94c-1.806 0-2.145.978-2.897 3.216l-.583-.037.114-3.857h10.42l.13 3.857-.583.037c-.62-2.106-1.034-3.216-2.897-3.216h-.977v10.288c0 .583.413.753 2.088.809v.602h-5.963v-.602zm18.15-9.16c.847-1.448.809-1.843-.847-2.068v-.546h4.27v.546c-1.071.225-1.523.47-2.37 1.88l-2.783 4.609v3.93c0 .583.376.752 1.956.81v.6h-5.7v-.6c1.58-.058 1.957-.227 1.957-.81v-3.724l-3.197-5.548c-.415-.715-.696-.941-1.825-1.147v-.546h5.323v.546c-1.655.093-1.844.507-1.448 1.222l2.52 4.495 2.144-3.649zM11.025 110.675c0-4.026-1.675-5.812-3.95-5.812-2.276 0-3.799 1.786-3.799 5.812 0 4.044 1.673 5.812 3.949 5.812s3.8-1.768 3.8-5.812m-9.78.037c0-3.968 2.632-6.526 5.905-6.526 3.367 0 5.906 2.482 5.906 6.45 0 3.988-2.633 6.527-5.906 6.527-3.367 0-5.906-2.463-5.906-6.451m12.789 5.548c1.58-.055 1.958-.225 1.958-.808v-9.554c0-.583-.377-.753-1.958-.81v-.602H24.04l.131 3.555-.583.02c-.639-2.126-1.26-2.879-3.366-2.879h-2.446v5.06h1.243c1.39 0 1.71-.188 2.218-2.05h.508v4.852h-.508c-.47-1.956-.827-2.087-2.218-2.087h-1.243v4.495c0 .62.395.753 2.07.809v.602h-5.813v-.602zm24.113-9.667c-.32-.978-.678-1.373-1.881-1.56v-.547h5.116v.546c-1.542.094-1.73.508-1.523 1.185l2.539 8.162h.075l2.276-6.94c.62-1.862.432-2.144-1.336-2.407v-.546h4.552v.546c-1.278.263-1.825.828-2.352 2.39l-3.234 9.741h-.847l-2.69-8.388-3.197 8.388h-.846l-3.291-10.796c-.264-.846-.584-1.053-1.976-1.335v-.546h5.172v.546c-1.447.094-1.56.47-1.353 1.185l2.37 8.182h.056l2.652-6.903-.282-.903zm19.824 4.082c0-4.026-1.674-5.812-3.95-5.812-2.275 0-3.798 1.786-3.798 5.812 0 4.044 1.672 5.812 3.948 5.812s3.8-1.768 3.8-5.812m-9.781.037c0-3.968 2.633-6.526 5.906-6.526 3.366 0 5.906 2.482 5.906 6.45 0 3.988-2.633 6.527-5.906 6.527-3.366 0-5.906-2.463-5.906-6.451m12.978 5.548c1.58-.055 1.957-.225 1.957-.808v-9.554c0-.583-.377-.753-1.957-.81v-.602h5.699v.603c-1.58.056-1.956.226-1.956.809v10.25h2.05c2.483 0 3.065-.884 3.781-3.442l.582.038-.13 4.12H61.167v-.603zm11.755 0c1.58-.055 1.957-.225 1.957-.808v-9.554c0-.583-.377-.753-1.957-.81v-.602h5.698v.603c-1.578.056-1.955.226-1.955.809v10.25h2.05c2.482 0 3.066-.884 3.78-3.442l.583.038-.13 4.12H72.921v-.603zm21.348-5.585c0-4.026-1.675-5.812-3.95-5.812-2.276 0-3.8 1.786-3.8 5.812 0 4.044 1.674 5.812 3.95 5.812 2.275 0 3.8-1.768 3.8-5.812m-9.781.037c0-3.968 2.634-6.526 5.905-6.526 3.368 0 5.907 2.482 5.907 6.45 0 3.988-2.633 6.527-5.907 6.527-3.366 0-5.905-2.463-5.905-6.451m15.441-4.27h-.018v7.449c0 1.73.225 2.162 2.031 2.426v.545h-4.76v-.545c1.675-.282 1.976-.695 1.976-2.426v-7.523c0-.697-.451-1.242-1.975-1.28v-.601h3.518l6.997 9.61h.018v-6.658c0-1.71-.394-2.144-2.18-2.406v-.546h4.775v.546c-1.673.3-1.842.695-1.842 2.406v9.725h-.733l-7.807-10.722zm10.985 4.27c0-3.874 2.952-6.526 6.413-6.526 1.147 0 2.39.32 3.01.602l.507-.602h.583v3.63h-.564c-.752-1.994-2.012-2.953-3.724-2.953-2.069 0-4.194 1.88-4.194 5.812 0 3.912 2.295 5.811 4.344 5.811 1.148 0 1.994-.226 2.52-.639v-3.498c0-.584-.375-.753-1.955-.809v-.602h4.983v.602c-1.146.056-1.24.187-1.24.809v3.856c-1.073.582-2.935.958-4.157.958-3.479 0-6.526-2.182-6.526-6.45m23.36-.038c0-4.026-1.674-5.812-3.95-5.812-2.275 0-3.8 1.786-3.8 5.812 0 4.044 1.675 5.812 3.95 5.812 2.276 0 3.8-1.768 3.8-5.812m-9.781.037c0-3.968 2.633-6.526 5.905-6.526 3.368 0 5.907 2.482 5.907 6.45 0 3.988-2.633 6.527-5.907 6.527-3.365 0-5.905-2.463-5.905-6.451m15.536-4.27h-.018v7.449c0 1.73.225 2.162 2.03 2.426v.545h-4.759v-.545c1.675-.282 1.976-.695 1.976-2.426v-7.523c0-.697-.452-1.242-1.976-1.28v-.601h3.519l6.996 9.61h.018v-6.658c0-1.71-.395-2.144-2.18-2.406v-.546h4.776v.546c-1.674.3-1.843.695-1.843 2.406v9.725h-.733l-7.806-10.722zm11.304 4.27c0-3.874 2.952-6.526 6.414-6.526 1.146 0 2.388.32 3.009.602l.508-.602h.581v3.63h-.562c-.752-1.994-2.013-2.953-3.725-2.953-2.068 0-4.194 1.88-4.194 5.812 0 3.912 2.295 5.811 4.345 5.811 1.147 0 1.994-.226 2.52-.639v-3.498c0-.584-.376-.753-1.956-.809v-.602h4.983v.602c-1.146.056-1.24.187-1.24.809v3.856c-1.073.582-2.934.958-4.156.958-3.48 0-6.527-2.182-6.527-6.45M7.865 129.086l-1.713-4.984h-.074l-1.919 4.984h3.706zm.245.677H3.896l-.714 1.844c-.696 1.767-.603 1.993 1.034 2.256v.546H.135v-.546c1.279-.263 1.692-.997 2.332-2.613l3.78-9.405h.846l3.8 10.476c.34.941.715 1.355 2.107 1.542v.546H7.45v-.546c1.638-.093 1.938-.45 1.58-1.448l-.92-2.652zm5.754 1.279v-7.599c0-.583-.376-.752-1.956-.808v-.602h5.549v.602c-1.673.056-1.806.188-1.806.808v7.298c0 2.2 1.486 3.16 3.5 3.16 1.014 0 1.804-.357 2.388-.94.676-.678.96-1.26.96-2.67v-5.305c0-1.711-.395-2.144-2.183-2.407v-.546h4.779v.546c-1.676.3-1.845.696-1.845 2.407v5.868c0 1.975-1.692 3.856-4.682 3.856-2.88 0-4.704-1.486-4.704-3.668m12.038-.282h.583c.978 2.182 2.218 3.274 3.78 3.274 1.882 0 2.652-1.28 2.652-2.39 0-1.391-.996-1.9-3.273-2.708-1.71-.602-3.516-1.11-3.516-3.423 0-2.351 1.843-3.78 4.175-3.78 1.054 0 1.806.206 2.407.432l.602-.527h.414v3.612h-.583c-.602-1.75-1.673-2.84-3.142-2.84-1.278 0-2.276.827-2.276 2.294 0 1.354 1.092 1.787 3.104 2.464 1.712.584 3.48 1.166 3.48 3.498 0 1.863-1.09 4.044-4.212 4.044-1.016 0-2.089-.225-2.804-.526l-.94.602h-.451v-4.025zm12.281 3.047c1.675-.056 2.088-.226 2.088-.809V122.71h-.94c-1.806 0-2.144.978-2.897 3.216l-.582-.037.113-3.856h10.42l.13 3.856-.582.037c-.622-2.106-1.035-3.216-2.897-3.216h-.978v10.288c0 .583.413.753 2.088.81v.602h-5.963v-.603zm15.01-5.924c2.369 0 2.952-1.034 2.952-2.784 0-1.637-.827-2.389-3.084-2.389h-1.318v5.173h1.45zm-1.45 5.115c0 .621.265.753 1.938.81v.6h-5.679v-.6c1.579-.057 1.956-.227 1.956-.81v-9.554c0-.583-.377-.752-1.956-.809v-.601h5.19c3.763 0 4.872 1.447 4.872 3.008 0 1.505-.847 2.596-3.14 3.104v.056c2.276.226 2.557 1.11 2.783 2.483l.282 1.787c.169 1.091.621 1.354 1.918 1.448v.602c-.132 0-.49.019-.62.019-2.652 0-3.085-.545-3.218-2.257l-.112-1.449c-.15-1.843-.92-2.276-2.858-2.276h-1.356v4.439zm16.553-3.912l-1.712-4.984h-.074l-1.92 4.984h3.706zm.245.677h-4.214l-.715 1.844c-.696 1.767-.601 1.993 1.034 2.256v.546h-4.08v-.546c1.278-.263 1.692-.997 2.331-2.613l3.781-9.405h.847l3.799 10.476c.34.941.715 1.355 2.107 1.542v.546h-5.549v-.546c1.637-.093 1.937-.45 1.58-1.448l-.921-2.652zm5.774 4.044c1.579-.056 1.956-.226 1.956-.809v-9.554c0-.583-.377-.753-1.956-.809v-.602h5.698v.602c-1.58.056-1.957.226-1.957.81v10.25h2.05c2.484 0 3.067-.885 3.782-3.443l.582.038-.13 4.12H74.315v-.603zm11.285 0c1.58-.056 1.956-.226 1.956-.809v-9.554c0-.583-.377-.753-1.957-.809v-.602h5.699v.602c-1.58.056-1.956.226-1.956.81v9.553c0 .583.376.753 1.956.81v.602h-5.699v-.603zm14.801-4.721l-1.712-4.984h-.074l-1.92 4.984h3.706zm.245.677h-4.214l-.714 1.844c-.696 1.767-.602 1.993 1.034 2.256v.546H92.67v-.546c1.279-.263 1.692-.997 2.333-2.613l3.78-9.405h.846l3.8 10.476c.34.941.714 1.355 2.107 1.542v.546h-5.55v-.546c1.637-.093 1.937-.45 1.58-1.448l-.921-2.652zM8.263 14.14c.492-.461 1.3-.411 1.564-.323.263.087.555.247.592.338-.457.002-.982.306-1.55.463-.598.194-1.184.229-1.18.07 0 0 .224-.218.574-.547m2.59-3.785c.029-.112.097-.104.108.025.046.58.48 1.085.71 1.54.295.578.128 1.207.128 1.207-.029.05-.494-.339-.776-.738-.574-.814-.248-1.734-.17-2.034m.793 7.277c-.452.514-.723.592-1.04 1.144-.243.422-.611.464-.605.4.024-.219.012-.801.541-1.492.528-.69 1.376-.877 1.376-.877s-.107.637-.272.825m1.102-3.343c.606-.495 1.356-.582 1.673-.193.32.388.088 1.106-.518 1.602-.606.497-1.354.584-1.672.195-.32-.39-.088-1.108.517-1.604m2.472-3.176c.484-.662 1.067-.774 1.247-.9.148-.104.097.465-.29.895-.386.43-.466.58-.626.953-.195.448-.961.634-.989.571 0 0 .173-.86.658-1.52m-.287 5.51c-.421.403-.795.44-1.328.428-.384-.007-.694-.12-.709-.148-.022-.05.132-.081.311-.13.506-.14 1.522-.526 1.944-1.545.1-.246.135-.41.17-.416.034-.005.108.295.112.428.008.348.012.891-.5 1.383M7.11 15.148c.463.235.422.667 1.477 1.233.61.33 1.613.209 2.037.033.518-.215.646.066.207.329-.833.498-1.239 1.411-1.232 2.425.004.402-.348.754-.067 1.034.134.134.338-.031.666-.07.51-.062 1.597.243 2.579-.506.625-.477.65-1.321.773-1.602.157-.358.28-.316.352-.123.069.193.677 1.076 2.13 1.141.877.04 1.028 0 1.446.19.412.188.826-.083.49-.487-.37-.445-.014-.649-.383-2.02-.124-.464-.734-1.413-1.605-1.667-.315-.092-.282-.26 0-.395 1.043-.499 2.139-2.232 1.447-4.076-.205-.548.025-.893-.208-1.044-.164-.108-.436-.04-.59.143-.38.45-1.962.37-2.465 1.848-.17.499-.07 1.017-.368 1.085-.207.048-.215-.31-.207-.534.026-.719-.49-1.671-1.05-1.993-.49-.284-1.03-.396-1.359-.68-.254-.219-.625-.253-.599.354.026.64-.92 1.933.179 3.365.066.107.271.242.23.396-.008.031-.142.203-.273.15-.307-.122-.745-.573-1.657-.37-.912.203-1.494 1.07-1.95 1.193-.28.075-.386.453 0 .648"/><path d="M17.423 14.987c1.053.71 1.298 2.185 1.245 3.159-.005.102.424.086.658.026.33-.086 2.768 1.105 4.138 2.45.137.12.46-.097.109-.637-1.106-1.703-2.47-2.32-3.182-2.906-.713-.588-.694-.802-.984-1.443-.444-.989-.996-1.544-1.424-1.553-.054-.001-.14.255-.52.536-.156.115-.286.228-.04.368m23.802-4.773c.18.127.765.238 1.25.9.483.659.656 1.52.656 1.52-.028.061-.794-.124-.987-.572-.163-.373-.242-.523-.628-.953-.385-.43-.439-1-.29-.895m2.046 3.883c.318-.389 1.068-.303 1.673.193.606.496.838 1.214.518 1.604-.318.388-1.068.303-1.673-.195-.604-.496-.838-1.213-.518-1.602m3.88 3.588c.527.69.516 1.273.541 1.492.006.064-.362.022-.606-.4-.316-.552-.588-.63-1.04-1.145-.164-.187-.272-.824-.272-.824s.848.188 1.377.877m-1.13-5.764c.231-.455.665-.96.71-1.54.01-.13.08-.136.108-.025.079.3.404 1.22-.17 2.034-.282.399-.747.787-.775.738 0 0-.168-.628.126-1.207m-1.931 5.13c-.535.011-.908-.025-1.33-.428-.51-.491-.507-1.035-.5-1.383.004-.134.078-.433.113-.427.035.005.07.169.17.415.422 1.019 1.438 1.404 1.944 1.544.18.05.332.082.309.131-.013.029-.324.141-.706.149m3.776-3.235c.264-.088 1.073-.138 1.564.324.35.328.576.547.576.547.003.159-.583.125-1.182-.07-.569-.157-1.092-.46-1.549-.463.037-.091.33-.25.591-.338m-6.154.846c.283.136.316.303 0 .395-.87.254-1.48 1.203-1.605 1.668-.37 1.37-.013 1.574-.381 2.018-.339.405.076.675.489.488.417-.19.568-.15 1.445-.19 1.454-.066 2.061-.948 2.131-1.141.07-.193.194-.235.35.123.125.28.15 1.125.775 1.601.98.75 2.07.445 2.578.507.327.039.533.204.668.07.279-.28-.071-.632-.068-1.034.006-1.014-.399-1.927-1.231-2.425-.44-.262-.313-.544.206-.329.424.176 1.427.296 2.037-.032 1.055-.567 1.014-1 1.477-1.233.385-.196.28-.574 0-.65-.457-.123-1.038-.99-1.949-1.193-.914-.202-1.353.249-1.657.37-.133.054-.267-.118-.275-.149-.04-.153.165-.288.23-.396 1.1-1.432.153-2.725.18-3.365.024-.607-.345-.573-.6-.355-.329.285-.869.398-1.36.68-.558.323-1.075 1.275-1.05 1.995.009.223 0 .58-.205.534-.299-.068-.198-.587-.369-1.086-.503-1.478-2.084-1.397-2.464-1.848-.154-.183-.426-.25-.59-.143-.233.15-.004.496-.208 1.044-.692 1.844.403 3.577 1.446 4.076"/><path d="M34.12 19.985c-.35.54-.027.757.11.638 1.37-1.347 3.807-2.537 4.136-2.451.236.06.665.076.66-.026-.054-.974.192-2.448 1.244-3.159.247-.14.116-.252-.04-.367-.381-.282-.466-.539-.519-.537-.427.01-.981.563-1.425 1.553-.29.64-.271.855-.982 1.442-.714.588-2.078 1.204-3.183 2.907M30.177 9.407c.175-.309.591-.763 1.057-.927.487-.174.86-.143.99-.14.155.005.116.038-.013.086-.855.582-1.17 1.546-1.522 2.037-.26.364-.796.439-.814.351-.047-.237.078-1.015.302-1.407m-1.215 6.94l-.042.003h-.007l-.009.001h-.029c-.015 0-.027-.002-.04-.003-1.586-.01-2.151-1.454-1.85-1.583 0 0 .387.692 1.796.759l.02-.001.055-.002h.019l.054.002c.007 0 .014.002.021 0 1.41-.066 1.86-.758 1.86-.758.301.129-.264 1.572-1.848 1.583m-3.48-7.922c-.118-.072-.166-.064-.013-.086.15-.02.484-.034.97.14.466.164.883.618 1.057.927.225.392.37 1.17.322 1.407-.017.088-.644-.159-.902-.526-.367-.526-.744-1.439-1.433-1.862m3.36 3.878h.009c.716.014 1.293.472 1.293 1.037s-.577 1.024-1.293 1.038h-.009c-.717-.014-1.294-.473-1.294-1.038 0-.565.577-1.023 1.293-1.037m3.756.317c.27-.155.89-.48 1.614-.151.287.13.71.4.997.53.336.151.512.151.719.216.054.017-.013.073-.079.086-.296.062-.664.489-2.112-.01-.453-.158-.847-.51-1.11-.53-.105-.006-.125-.088-.03-.141m-7.571.155c-.263.02-.67.363-1.118.528-1.102.404-1.658.126-2.104.011-.066-.016-.093-.082-.038-.1.207-.064.382-.064.719-.215.286-.13.71-.4.996-.53.724-.33 1.343-.004 1.615.15.095.054.035.15-.07.156m3.88-1.849a.109.109 0 0 1-.054.023v-.003c-.002 0-.004 0-.005.002l-.004-.002v.003a.109.109 0 0 1-.055-.023c-.083-.066-.056-.274-.122-.641-.308-1.737-1.267-2.66-3.109-2.753-.918-.046-.982-.402-1.318-.272-.297.116-.053.397-.105.955-.105 1.096-.002 2.046 1.1 3.072.423.362.36.76.166.699-.139-.044-.41-.18-.69-.281-1.238-.448-2.177.382-2.695.747-.214.152-.362.366-.717.454-.5.125-.48.58-.017.743.543.192.529.62 1.185 1.388.974 1.144 2.433 1.015 3.321.836.475-.123.552.044.575.102.11.302-.802 1.337.48 2.79.648.732 1.344 1.03 1.574 1.469.134.254.142.389.38.418v.003l.04.001.003.001h.018c.015 0 .027 0 .04-.002v-.003c.239-.03.247-.164.38-.418.23-.44.927-.737 1.575-1.47 1.282-1.452.37-2.487.48-2.789.021-.058.1-.225.574-.102.887.18 2.348.308 3.322-.836.656-.768.642-1.196 1.185-1.388.463-.162.483-.618-.017-.743-.355-.088-.504-.302-.718-.454-.517-.365-1.457-1.195-2.694-.747-.28.101-.552.237-.69.281-.195.061-.259-.337.167-.7 1.101-1.025 1.203-1.975 1.1-3.071-.054-.558.19-.839-.106-.955-.336-.13-.401.226-1.318.272-1.842.093-2.802 1.016-3.11 2.753-.065.367-.039.575-.122.641"/><path d="M53.714 43.496c0 4.467-.733 9.373-6.047 14.98-4.258 4.489-13.691 9.643-18.87 11.957-9.471-4.196-16.598-9.547-18.882-11.958-5.316-5.606-6.05-10.512-6.05-14.979V7.854c10.267-4.325 23.62-4.121 24.836-4.093a.74.74 0 0 0 .089.003c.03 0 .06 0 .089-.003 1.217-.03 14.571-.232 24.835 4.093v35.642zM28.79 2.274C27.688 2.24 13.686 1.92 2.823 6.682l-.445.195v36.62c0 4.774.781 10.019 6.456 16.003 4.504 4.75 14.453 10.146 19.664 12.43l.3.132.3-.133c5.213-2.292 15.159-7.693 19.649-12.43 5.673-5.983 6.457-11.228 6.457-16.003V6.876l-.446-.194C43.895 1.922 29.892 2.24 28.79 2.274z"/><path d="M56.21 43.496c0 4.984-.815 10.456-6.732 16.698-4.592 4.843-14.689 10.333-19.976 12.657l-.703.311-.707-.311c-5.282-2.314-15.38-7.797-19.99-12.657C2.185 53.952 1.37 48.48 1.37 43.496V6.217l1.05-.458c9.286-4.07 20.634-4.51 25.08-4.51.657 0 1.102.011 1.29.016.188-.005.631-.015 1.286-.015 4.448 0 15.8.44 25.086 4.509l1.049.458v37.28zM56.5 5.56l-1.049-.46C46.039.976 34.571.53 30.076.53c-.662 0-1.107-.005-1.287 0-.179-.005-.624 0-1.288 0-4.493 0-15.96.446-25.37 4.57l-1.05.459-.43.187v37.751c0 5.132.839 10.767 6.929 17.191 4.681 4.937 14.89 10.485 20.223 12.821l.706.311.29.128.29-.128.704-.311c5.336-2.345 15.542-7.9 20.207-12.82 6.09-6.425 6.93-12.06 6.93-17.193V5.747l-.431-.188z"/><path d="M32.292 42.47c.039 0 .08-.005.13-.016a6.266 6.266 0 0 1 1.005-.079c.876 0 1.863.16 2.931.476.88.26 1.78.347 2.237.376l.003-.034a15.22 15.22 0 0 1-2.051-.65c-.976-.382-1.897-.623-2.736-.711a7.945 7.945 0 0 0-.406-.011c-.332 0-.655.022-1.002.078a3.67 3.67 0 0 0-.581.153c.002.004.092.418.47.418m0-2.053c.039 0 .08-.005.13-.016a6.29 6.29 0 0 1 1.005-.079c.875 0 1.862.16 2.931.476.642.189 1.396.315 2.237.376l.003-.035a15.218 15.218 0 0 1-2.051-.649c-.976-.382-1.897-.623-2.736-.711a7.498 7.498 0 0 0-.406-.011 6.22 6.22 0 0 0-1.002.078 3.67 3.67 0 0 0-.581.153c.002.004.092.418.47.418m0-2.053a.64.64 0 0 0 .128-.014c.33-.054.66-.08 1.007-.08.876 0 1.863.16 2.931.476.878.259 1.857.349 2.237.376l.003-.034a15.142 15.142 0 0 1-2.051-.65c-.976-.383-1.897-.623-2.736-.711a7.893 7.893 0 0 0-.406-.012c-.333 0-.657.024-1.002.078a3.58 3.58 0 0 0-.581.153c.002.005.092.418.47.418m0 6.159c.039 0 .08-.005.13-.016a6.242 6.242 0 0 1 1.005-.079c.875 0 1.862.16 2.931.475.639.188 1.392.314 2.237.377l.003-.035a15.296 15.296 0 0 1-2.051-.649c-.975-.382-1.897-.623-2.736-.712a7.963 7.963 0 0 0-.406-.01c-.333 0-.657.022-1.002.077a3.58 3.58 0 0 0-.581.154c.002.004.092.418.47.418m-15.024-13.54c.307.06.363.068.793.083l.056.004c.052.002.104.004.156.004h.069c1.639-.075 2.125-.633 2.119-.64-.004-.007-.01-.012-.022-.012h-.002a6.36 6.36 0 0 1-.843.128c-.453.058-.882.089-1.278.089-.86 0-1.372-.141-1.598-.224l-.063-.02-.022.006a.02.02 0 0 0-.007.02c.001.004.072.453.642.562m19.091 15.973c.89.263 1.86.35 2.236.376l.003-.035a14.965 14.965 0 0 1-2.05-.649c-.978-.383-1.9-.623-2.736-.711a7.842 7.842 0 0 0-.407-.011c-.335 0-.659.022-1.001.078a3.754 3.754 0 0 0-.581.153c0 .004.09.418.47.418a.56.56 0 0 0 .131-.017 6.348 6.348 0 0 1 1.002-.077c.876 0 1.864.16 2.933.475M17.268 33.062c.307.06.363.067.793.084l.056.002c.052.003.104.005.156.005l.069-.001c1.639-.075 2.125-.632 2.119-.64-.004-.007-.01-.011-.022-.011h-.002a6.36 6.36 0 0 1-.843.127c-.453.059-.882.09-1.278.09-.86 0-1.372-.142-1.598-.225l-.063-.019-.022.005c-.005.006-.008.012-.007.02.001.005.072.455.642.563m-7.976 7.006c.07.09.112.203.112.325 0 .3-.252.544-.562.544a.557.557 0 0 1-.564-.519.74.74 0 0 0-.079.329c0 .413.347.748.773.748a.76.76 0 0 0 .771-.748.744.744 0 0 0-.45-.679m-.001 7.07c.07.09.112.202.112.324 0 .3-.252.545-.562.545a.557.557 0 0 1-.564-.519.734.734 0 0 0-.079.33c0 .411.347.746.773.746a.76.76 0 0 0 .771-.747.745.745 0 0 0-.45-.68m22.999-10.825c.04 0 .08-.006.126-.015a6.344 6.344 0 0 1 1.01-.079c.875 0 1.862.16 2.93.475.645.19 1.398.316 2.237.377l.003-.035a15.257 15.257 0 0 1-2.051-.649c-.975-.383-1.897-.623-2.736-.712a8.05 8.05 0 0 0-.406-.011c-.333 0-.657.023-1 .077a3.73 3.73 0 0 0-.583.154c.002.004.092.418.47.418M9.292 33c.07.09.112.202.112.324 0 .3-.252.544-.562.544a.557.557 0 0 1-.564-.52.733.733 0 0 0-.079.33c0 .412.347.747.773.747a.76.76 0 0 0 .771-.746.745.745 0 0 0-.45-.68m23-2.846a.59.59 0 0 0 .124-.014c.33-.054.66-.08 1.01-.08.875 0 1.863.16 2.931.475.841.248 1.682.342 2.236.377l.003-.034a15.252 15.252 0 0 1-2.05-.65c-.976-.383-1.896-.622-2.736-.711a6.902 6.902 0 0 0-1.328.052l-.037.004-.04.008a3.802 3.802 0 0 0-.583.155c0 .004.092.418.47.418m-.001 4.105c.04 0 .08-.005.126-.014a6.344 6.344 0 0 1 1.01-.079c.875 0 1.86.16 2.93.475.855.252 1.612.331 2.237.376l.003-.034a15.066 15.066 0 0 1-2.051-.65c-.974-.383-1.894-.622-2.736-.711a6.852 6.852 0 0 0-1.321.052l-.035.003a.19.19 0 0 0-.05.01 3.73 3.73 0 0 0-.583.154c.002.005.092.418.47.418m.001-2.053c.04 0 .08-.004.125-.014a6.3 6.3 0 0 1 1.01-.078c.875 0 1.862.159 2.93.474.637.188 1.388.314 2.236.376l.003-.033a15.22 15.22 0 0 1-2.05-.65c-.976-.384-1.896-.623-2.736-.713a7.048 7.048 0 0 0-1.323.052l-.033.004-.05.01a3.75 3.75 0 0 0-.582.154c0 .005.092.418.47.418M18.118 47.703c.05.003.103.004.156.004h.067c1.638-.075 2.126-.632 2.121-.64-.004-.007-.012-.011-.023-.011h-.002c-.35.08-.708.116-.843.128-.452.058-.882.088-1.278.088-.862 0-1.372-.14-1.598-.224l-.063-.019-.022.005a.023.023 0 0 0-.008.02c0 .005.072.454.643.563.308.06.363.067.794.084l.056.002zm-.85-6.324c.307.06.363.067.793.084l.056.002c.052.003.104.005.156.005l.069-.001c1.639-.075 2.125-.632 2.119-.64-.004-.007-.01-.011-.022-.011h-.002a6.36 6.36 0 0 1-.843.127c-.453.06-.882.09-1.278.09-.86 0-1.372-.142-1.598-.225l-.063-.019-.022.005c-.005.006-.008.013-.007.02.001.005.072.454.642.563m0 4.158c.307.06.363.068.793.085l.056.002c.052.002.104.004.156.004h.069c1.639-.075 2.125-.633 2.119-.64-.004-.007-.01-.012-.022-.012h-.002c-.35.08-.707.116-.843.128-.453.058-.882.089-1.278.089-.86 0-1.372-.141-1.598-.224l-.063-.02-.022.006a.024.024 0 0 0-.007.02c.001.004.072.454.642.562m0-10.395c.307.06.363.067.793.083l.056.003c.052.003.104.004.156.004h.069c1.639-.075 2.125-.632 2.119-.64-.004-.007-.01-.011-.022-.011h-.002a6.36 6.36 0 0 1-.843.127c-.453.059-.882.09-1.278.09-.86 0-1.372-.142-1.598-.225l-.063-.02-.022.006a.02.02 0 0 0-.007.02c.001.004.072.453.642.563m0 8.317c.307.06.363.067.793.083l.056.003c.052.003.104.004.156.004h.069c1.639-.075 2.125-.632 2.119-.64-.004-.007-.01-.011-.022-.011h-.002a6.36 6.36 0 0 1-.843.127c-.453.059-.882.09-1.278.09-.86 0-1.372-.142-1.598-.225l-.063-.02-.022.006a.02.02 0 0 0-.007.02c.001.004.072.454.642.563m0-4.159c.307.06.363.068.793.083l.056.003c.052.003.104.005.156.005.022 0 .045 0 .069-.002 1.639-.073 2.125-.63 2.119-.638-.004-.007-.01-.011-.022-.011h-.002a6.36 6.36 0 0 1-.843.127 9.963 9.963 0 0 1-1.278.089c-.86 0-1.372-.141-1.598-.224l-.063-.02-.022.006a.02.02 0 0 0-.007.02c.001.004.072.453.642.562m0-2.08c.307.06.363.068.793.084l.056.003c.052.003.104.004.156.004l.069-.001c1.639-.074 2.125-.631 2.119-.64-.004-.006-.01-.01-.022-.01h-.002a6.36 6.36 0 0 1-.843.127 9.963 9.963 0 0 1-1.278.089c-.86 0-1.372-.141-1.598-.224l-.063-.02-.022.006a.024.024 0 0 0-.007.02c.001.004.072.453.642.562"/><path d="M49.955 35.848h-1.762v-1.094h.01l.961-.834h-2.208v-.986h1.237V31.8h1.762v4.048zm0 7.115h-1.762v-1.095h.01l.961-.834h-2.208v-.986h1.237v-1.133h1.762v4.048zm0 7.114h-1.762v-1.095h.01l.961-.834h-2.208v-.985h1.237v-1.135h1.762v4.05zm-3.624 3.156H32.948c-.356.024-.714-.008-1.231.393-.434.398-1.287.964-2.694 1.032-1.647.08-2.69-.644-3.168-1.083-.401-.284-.705-.307-.994-.321H11.739v-22.86h2.06l-.08.098v20.16l-.592.736V31.2l-.607.733.033 20.366h12.794c.635.026.913.33 1.153.53.396.341 1.13.715 2.353.715 1.006 0 1.672-.294 2.094-.597a.274.274 0 0 0 .072-.03c.264-.159.497-.538 1.135-.618h13.36l-.007-20.245-.641-.832v20.166l-.591-.736V30.457l-.048-.062h2.104v22.838zM14.38 29.61l.591-.736v20.22l-.59.736V29.61zm1.286-1.028c2.442 1.225 5.704-.433 8.572-.693 2.266-.206 3.47.777 3.902 1.238v1.291c-.295-.221-.707-.425-1.26-.62-.16-.044-.638-.179-1.09-.179-.123 0-.237.01-.339.02-.018.003-.023.01-.003.013.114.017.331.057.6.148l.028.01c1.113.407 1.752 1.03 2.064 1.411v1.239c-.247-.178-.63-.38-1.264-.594-.152-.04-.616-.165-1.059-.165-.133 0-.254.01-.362.025-.018.002-.027.012.003.017l.017.003c.109.016.309.046.57.131l.027.009c1.099.371 1.752 1.005 2.068 1.384v1.237c-.288-.203-.7-.39-1.273-.575a4.249 4.249 0 0 0-1.024-.152c-.136 0-.261.01-.373.026-.027.003-.035.016-.004.02.119.014.322.049.565.124l.096.031c1.114.418 1.722.988 2.013 1.33v1.235c-.284-.194-.69-.37-1.27-.55-.14-.034-.565-.139-.99-.139a2.76 2.76 0 0 0-.42.034c-.02.003-.029.015.013.02.106.013.305.036.568.115l.132.04c1.061.372 1.673.945 1.967 1.288v1.232c-.282-.187-.69-.357-1.27-.53a4.456 4.456 0 0 0-.95-.124c-.175 0-.33.016-.464.041-.017.003-.025.014-.007.016l.061.007c.118.012.295.032.536.1l.026.008c.33.123 1.354.554 2.068 1.325v1.2c-.281-.184-.688-.347-1.267-.512a4.427 4.427 0 0 0-.917-.113 2.78 2.78 0 0 0-.502.046c-.018.003-.022.011 0 .013.112.007.324.03.593.103l.026.007c.843.245 1.57.696 2.067 1.272v1.23c-.281-.181-.689-.34-1.271-.499a4.448 4.448 0 0 0-.878-.101c-.199 0-.375.02-.531.05-.02.004-.026.013-.004.015.116.006.327.026.588.093l.026.007a4.571 4.571 0 0 1 2.07 1.293v1.184c-.281-.18-.688-.335-1.267-.484a4.517 4.517 0 0 0-.84-.09 2.76 2.76 0 0 0-.569.057c-.019.005-.041.015-.013.017.093.003.31.012.596.082l.026.006c.361.063 1.501.596 2.067 1.182v1.269c-.282-.184-.692-.338-1.28-.482a4.679 4.679 0 0 0-.794-.078 2.68 2.68 0 0 0-.605.064c-.02.004-.021.017.018.019.106.003.303.011.558.07l.029.006c.952.203 1.692.8 2.074 1.217v1.51c-.914-.643-2.703-1.687-6.565-.452-3.02.967-5.474.474-5.91.11V28.581zm13.96.572c.465-.448 1.799-1.476 4.112-1.265 2.869.26 6.13 1.918 8.573.693v20.157c-.435.365-2.888.858-5.91-.109-4.182-1.337-5.936-.002-6.775.603v-20.08zm13.4-.28l.59.737V49.83l-.59-.736v-20.22zm-31.957 5.61H9.985c.009.23.016.602-.004.793-.053.525-.61.877-1.096.877a.9.9 0 0 1-.697-.308c-.34-.403-.026-1.086.096-1.288a1.895 1.895 0 0 1-.563.096c-.322 0-.869-.13-.912-1.002.043-.886.59-1.016.913-1.016.17 0 .358.032.562.096-.122-.201-.437-.886-.096-1.287a.898.898 0 0 1 .697-.309c.486 0 1.043.354 1.096.877.019.182.014.602.005.818h1.082v1.654zm0 7.07H9.985c.009.23.016.601-.004.793-.053.524-.61.876-1.096.876a.897.897 0 0 1-.697-.308c-.34-.401-.026-1.085.096-1.287a1.895 1.895 0 0 1-.563.096c-.322 0-.869-.13-.912-1.003.043-.885.59-1.016.913-1.016.17 0 .358.033.562.097-.122-.202-.436-.887-.094-1.287a.896.896 0 0 1 .696-.308c.485 0 1.042.351 1.095.875.017.165.014.594.005.818h1.082v1.655zm0 7.07H9.985c.009.228.016.602-.004.793-.053.524-.61.876-1.096.876a.895.895 0 0 1-.697-.308c-.34-.401-.026-1.085.096-1.288a1.87 1.87 0 0 1-.562.097c-.323 0-.87-.13-.913-1.003.04-.841.518-1.015.912-1.015.171 0 .36.032.563.096-.122-.203-.437-.886-.094-1.288a.891.891 0 0 1 .695-.308c.486 0 1.043.352 1.096.877.02.185.014.604.004.817h1.083v1.654zM48.99 21.958c-2.06.018-3.682.5-5.252.967-1.42.421-2.89.857-4.667.914-1.363.046-2.591-.308-4.016-.715l-.018-.006c-1.69-.485-3.605-1.034-6.171-1.034h-.141c-1.927 0-3.55.425-5.268.876-1.537.404-3.125.82-4.927.879-1.455.046-2.92-.338-4.47-.747l-.011-.004c-1.747-.46-3.555-.939-5.698-.944h-.059c-1.332 0-2.469.15-3.418.335v21.017c0 4.258.698 8.937 5.771 14.286 2.184 2.303 9.009 7.436 18.15 11.547 5.073-2.315 14.125-7.31 18.141-11.547 5.072-5.35 5.771-10.028 5.771-14.286v-21.09a15.874 15.874 0 0 0-3.672-.448h-.045z"/></g></svg>